SplineFontDB: 3.0
FontName: ZX81LowerClean
FullName: ZX81 Lower Clean
FamilyName: ZX81 Lower Clean
Weight: Regular
Copyright: Created with Chartotype, potrace and FontForge 2.0 - https://github.com/farique1
UComments: "2019-6-17: Created with FontForge (http://fontforge.org)"
Version: 001.000
ItalicAngle: 0
UnderlinePosition: -100
UnderlineWidth: 50
Ascent: 896
Descent: 128
InvalidEm: 0
LayerCount: 2
Layer: 0 0 "Back" 1
Layer: 1 0 "Fore" 0
XUID: [1021 379 -1044410058 6642800]
StyleMap: 0x0000
FSType: 0
OS2Version: 0
OS2_WeightWidthSlopeOnly: 0
OS2_UseTypoMetrics: 0
CreationTime: 1560799705
ModificationTime: 1560799706
PfmFamily: 16
TTFWeight: 400
TTFWidth: 5
LineGap: 0
VLineGap: 92
Panose: 2 0 5 9 0 0 0 0 0 0
OS2TypoAscent: 0
OS2TypoAOffset: 1
OS2TypoDescent: 0
OS2TypoDOffset: 1
OS2TypoLinegap: 0
OS2WinAscent: 0
OS2WinAOffset: 1
OS2WinDescent: 0
OS2WinDOffset: 1
HheadAscent: 0
HheadAOffset: 1
HheadDescent: 0
HheadDOffset: 1
OS2SubXSize: 665
OS2SubYSize: 716
OS2SubXOff: 0
OS2SubYOff: 143
OS2SupXSize: 665
OS2SupYSize: 716
OS2SupXOff: 0
OS2SupYOff: 491
OS2StrikeYSize: 51
OS2StrikeYPos: 265
OS2CapHeight: 896
OS2XHeight: 1024
OS2Vendor: '    '
DEI: 91125
Encoding: ISO8859-1
UnicodeInterp: none
NameList: AGL For New Fonts
DisplaySize: -48
AntiAlias: 1
FitToEm: 0
WinInfo: 26 26 9
BeginChars: 273 112

StartChar: o
Encoding: 111 111 0
Width: 1024
VWidth: 0
Flags: W
HStem: 0 128<256 768> 640 128<256 768>
VStem: 128 128<128 640> 768 128<128 640>
LayerCount: 2
Fore
SplineSet
256 640 m 1
 256 768 l 1
 768 768 l 1
 768 640 l 1
 256 640 l 1
128 128 m 1
 128 640 l 1
 256 640 l 1
 256 128 l 1
 128 128 l 1
768 128 m 1
 768 640 l 1
 896 640 l 1
 896 128 l 1
 768 128 l 1
256 0 m 1
 256 128 l 1
 768 128 l 1
 768 0 l 1
 256 0 l 1
EndSplineSet
EndChar

StartChar: i
Encoding: 105 105 1
Width: 1024
VWidth: 0
Flags: W
HStem: 0 128<256 512 640 896> 640 128<256 512 640 896>
VStem: 512 128<128 640>
LayerCount: 2
Fore
SplineSet
256 640 m 1
 256 768 l 1
 896 768 l 1
 896 640 l 1
 640 640 l 1
 640 128 l 1
 896 128 l 1
 896 0 l 1
 256 0 l 1
 256 128 l 1
 512 128 l 1
 512 640 l 1
 256 640 l 1
EndSplineSet
EndChar

StartChar: ampersand
Encoding: 38 38 2
Width: 1024
VWidth: 0
Flags: W
HStem: 0 128<384 640 768 896> 128 128<640 768> 256 128<512 640 768 896> 384 128<384 512> 512 128<256 384 512 640> 640 128<384 512>
VStem: 256 128<128 384 512 640> 384 128<384 512 640 768> 512 128<256 384 512 640> 640 128<128 256> 768 128<0 128 256 384>
LayerCount: 2
Fore
SplineSet
384 640 m 1x0a
 384 768 l 1
 512 768 l 1x05
 512 640 l 1x09
 384 640 l 1x0a
256 512 m 1x0a
 256 640 l 1
 384 640 l 1x0a
 384 512 l 1x12
 256 512 l 1x0a
512 512 m 1x11
 512 640 l 1x09
 640 640 l 1
 640 512 l 1x0880
 512 512 l 1x11
384 384 m 1x12
 384 512 l 1x12
 512 512 l 1x11
 512 384 l 1x21
 384 384 l 1x12
256 128 m 1x42
 256 384 l 1
 384 384 l 1
 384 128 l 1x92
 256 128 l 1x42
512 256 m 1x2080
 512 384 l 1x21
 640 384 l 1x2080
 640 256 l 1x4080
 512 256 l 1x2080
768 256 m 1x4040
 768 384 l 1
 896 384 l 1
 896 256 l 1x2020
 768 256 l 1x4040
640 128 m 1x8040
 640 256 l 1x4080
 768 256 l 1x4040
 768 128 l 1
 640 128 l 1x8040
384 0 m 1x8140
 384 128 l 1x82
 640 128 l 1
 640 0 l 1
 384 0 l 1x8140
768 0 m 1x8020
 768 128 l 1x8040
 896 128 l 1
 896 0 l 1
 768 0 l 1x8020
EndSplineSet
EndChar

StartChar: glyph3
Encoding: 256 9608 3
Width: 1024
VWidth: 0
Flags: W
HStem: -128 1024<0 1024>
VStem: 0 1024<-128 896>
LayerCount: 2
Fore
SplineSet
0 -128 m 1
 0 896 l 1
 1024 896 l 1
 1024 -128 l 1
 0 -128 l 1
EndSplineSet
EndChar

StartChar: quotesingle
Encoding: 39 39 4
Width: 1024
VWidth: 0
Flags: W
HStem: 512 256<384 512>
VStem: 384 128<512 768>
LayerCount: 2
Fore
SplineSet
384 512 m 1
 384 768 l 1
 512 768 l 1
 512 512 l 1
 384 512 l 1
EndSplineSet
EndChar

StartChar: h
Encoding: 104 104 5
Width: 1024
VWidth: 0
Flags: W
HStem: 0 21G<128 256 768 896> 384 128<256 768> 748 20G<128 256 768 896>
VStem: 128 128<0 384 512 768> 768 128<0 384 512 768>
LayerCount: 2
Fore
SplineSet
128 0 m 1
 128 768 l 1
 256 768 l 1
 256 512 l 1
 768 512 l 1
 768 768 l 1
 896 768 l 1
 896 0 l 1
 768 0 l 1
 768 384 l 1
 256 384 l 1
 256 0 l 1
 128 0 l 1
EndSplineSet
EndChar

StartChar: n
Encoding: 110 110 6
Width: 1024
VWidth: 0
Flags: W
HStem: 0 21G<128 256 768 896> 256 128<512 640> 384 128<384 512> 748 20G<128 256 768 896>
VStem: 128 128<0 512 640 768> 384 128<384 512> 512 128<256 384> 768 128<0 128 256 768>
LayerCount: 2
Fore
SplineSet
128 0 m 1xbd
 128 768 l 1
 256 768 l 1
 256 640 l 1
 384 640 l 1
 384 512 l 1
 256 512 l 1
 256 0 l 1
 128 0 l 1xbd
768 256 m 1xdb
 768 768 l 1
 896 768 l 1
 896 0 l 1
 768 0 l 1
 768 128 l 1
 640 128 l 1
 640 256 l 1
 768 256 l 1xdb
384 384 m 1xbd
 384 512 l 1
 512 512 l 1xbd
 512 384 l 1xdd
 384 384 l 1xbd
512 256 m 1xdb
 512 384 l 1xdd
 640 384 l 1
 640 256 l 1
 512 256 l 1xdb
EndSplineSet
EndChar

StartChar: j
Encoding: 106 106 7
Width: 1024
VWidth: 0
Flags: W
HStem: 0 128<256 768> 748 20G<768 896>
VStem: 128 128<128 384> 768 128<128 768>
LayerCount: 2
Fore
SplineSet
768 128 m 1
 768 768 l 1
 896 768 l 1
 896 128 l 1
 768 128 l 1
128 128 m 1
 128 384 l 1
 256 384 l 1
 256 128 l 1
 128 128 l 1
256 0 m 1
 256 128 l 1
 768 128 l 1
 768 0 l 1
 256 0 l 1
EndSplineSet
EndChar

StartChar: p
Encoding: 112 112 8
Width: 1024
VWidth: 0
Flags: W
HStem: 0 21G<128 256> 0 21G<128 256> 256 128<256 768> 640 128<256 768>
VStem: 128 128<0 256 384 640> 768 128<384 640>
LayerCount: 2
Fore
SplineSet
128 0 m 1xbc
 128 768 l 1
 768 768 l 1
 768 640 l 1
 256 640 l 1
 256 384 l 1
 768 384 l 1
 768 256 l 1
 256 256 l 1
 256 0 l 1
 128 0 l 1xbc
768 384 m 1
 768 640 l 1
 896 640 l 1
 896 384 l 1
 768 384 l 1
EndSplineSet
EndChar

StartChar: glyph9
Encoding: 257 9623 9
Width: 1024
VWidth: 0
Flags: W
HStem: -128 512<512 1024>
VStem: 512 512<-128 384>
LayerCount: 2
Fore
SplineSet
512 -128 m 1
 512 384 l 1
 1024 384 l 1
 1024 -128 l 1
 512 -128 l 1
EndSplineSet
EndChar

StartChar: glyph10
Encoding: 258 9622 10
Width: 1024
VWidth: 0
Flags: W
HStem: -128 512<0 512>
VStem: 0 512<-128 384>
LayerCount: 2
Fore
SplineSet
0 -128 m 1
 0 384 l 1
 512 384 l 1
 512 -128 l 1
 0 -128 l 1
EndSplineSet
EndChar

StartChar: q
Encoding: 113 113 11
Width: 1024
VWidth: 0
Flags: W
HStem: 0 128<256 512 640 768> 256 128<384 512> 640 128<256 768>
VStem: 128 128<128 640> 384 128<256 384> 768 128<128 640>
LayerCount: 2
Fore
SplineSet
256 640 m 1
 256 768 l 1
 768 768 l 1
 768 640 l 1
 256 640 l 1
128 128 m 1
 128 640 l 1
 256 640 l 1
 256 128 l 1
 128 128 l 1
768 128 m 1
 768 640 l 1
 896 640 l 1
 896 128 l 1
 768 128 l 1
384 256 m 1
 384 384 l 1
 512 384 l 1
 512 256 l 1
 384 256 l 1
512 128 m 1
 512 256 l 1
 640 256 l 1
 640 128 l 1
 768 128 l 1
 768 0 l 1
 256 0 l 1
 256 128 l 1
 512 128 l 1
EndSplineSet
EndChar

StartChar: k
Encoding: 107 107 12
Width: 1024
VWidth: 0
Flags: W
HStem: 0 128<768 896> 128 128<640 768> 256 128<512 640> 512 128<512 640> 640 128<640 768>
VStem: 128 128<0 384 512 768> 512 128<256 384 512 640> 640 128<128 256 640 768> 768 128<0 128>
LayerCount: 2
Fore
SplineSet
128 0 m 1xb6
 128 768 l 1
 256 768 l 1xae
 256 512 l 1
 512 512 l 1
 512 384 l 1
 256 384 l 1
 256 0 l 1
 128 0 l 1xb6
640 640 m 1x16
 640 768 l 1
 768 768 l 1
 768 640 l 1x0d
 640 640 l 1x16
512 512 m 1x16
 512 640 l 1
 640 640 l 1
 640 512 l 1
 512 512 l 1x16
512 256 m 1x26
 512 384 l 1
 640 384 l 1x26
 640 256 l 1x46
 512 256 l 1x26
640 128 m 1x45
 640 256 l 1x46
 768 256 l 1x45
 768 128 l 1x85
 640 128 l 1x45
768 0 m 1x8480
 768 128 l 1x85
 896 128 l 1
 896 0 l 1
 768 0 l 1x8480
EndSplineSet
EndChar

StartChar: g
Encoding: 103 103 13
Width: 1024
VWidth: 0
Flags: W
HStem: 0 128<256 768> 256 128<512 768> 512 128<768 896> 640 128<256 768>
VStem: 128 128<128 640> 768 128<128 256 512 640>
LayerCount: 2
Fore
SplineSet
256 640 m 1xdc
 256 768 l 1
 768 768 l 1xdc
 768 640 l 1xec
 256 640 l 1xdc
128 128 m 1
 128 640 l 1
 256 640 l 1
 256 128 l 1
 128 128 l 1
768 512 m 1xec
 768 640 l 1
 896 640 l 1
 896 512 l 1
 768 512 l 1xec
512 256 m 1
 512 384 l 1
 896 384 l 1
 896 128 l 1
 768 128 l 1
 768 256 l 1
 512 256 l 1
256 0 m 1
 256 128 l 1
 768 128 l 1
 768 0 l 1
 256 0 l 1
EndSplineSet
EndChar

StartChar: u
Encoding: 117 117 14
Width: 1024
VWidth: 0
Flags: W
HStem: 0 128<256 768> 748 20G<128 256 768 896>
VStem: 128 128<128 768> 768 128<128 768>
LayerCount: 2
Fore
SplineSet
128 128 m 1
 128 768 l 1
 256 768 l 1
 256 128 l 1
 128 128 l 1
768 128 m 1
 768 768 l 1
 896 768 l 1
 896 128 l 1
 768 128 l 1
256 0 m 1
 256 128 l 1
 768 128 l 1
 768 0 l 1
 256 0 l 1
EndSplineSet
EndChar

StartChar: glyph15
Encoding: 259 9626 15
Width: 1024
VWidth: 0
Flags: W
HStem: -128 512<512 1024> 384 512<0 512>
VStem: 0 512<384 896> 512 512<-128 384>
LayerCount: 2
Fore
SplineSet
0 384 m 1x60
 0 896 l 1
 512 896 l 1x60
 512 384 l 1xa0
 0 384 l 1x60
512 -128 m 1x90
 512 384 l 1xa0
 1024 384 l 1
 1024 -128 l 1
 512 -128 l 1x90
EndSplineSet
EndChar

StartChar: glyph16
Encoding: 260 9627 16
Width: 1024
VWidth: 0
Flags: W
HStem: 384 512<512 1024>
VStem: 0 512<-128 384>
LayerCount: 2
Fore
SplineSet
0 -128 m 1
 0 896 l 1
 1024 896 l 1
 1024 384 l 1
 512 384 l 1
 512 -128 l 1
 0 -128 l 1
EndSplineSet
EndChar

StartChar: t
Encoding: 116 116 17
Width: 1024
VWidth: 0
Flags: W
HStem: 0 21G<384 512> 0 21G<384 512> 640 128<0 384 512 896>
VStem: 384 128<0 640>
LayerCount: 2
Fore
SplineSet
0 640 m 1xb0
 0 768 l 1
 896 768 l 1
 896 640 l 1
 512 640 l 1
 512 0 l 1
 384 0 l 1
 384 640 l 1
 0 640 l 1xb0
EndSplineSet
EndChar

StartChar: f
Encoding: 102 102 18
Width: 1024
VWidth: 0
Flags: W
HStem: 0 21G<128 256> 0 21G<128 256> 384 128<256 768> 640 128<256 896>
VStem: 128 128<0 384 512 640>
LayerCount: 2
Fore
SplineSet
128 0 m 1xb8
 128 768 l 1
 896 768 l 1
 896 640 l 1
 256 640 l 1
 256 512 l 1
 768 512 l 1
 768 384 l 1
 256 384 l 1
 256 0 l 1
 128 0 l 1xb8
EndSplineSet
EndChar

StartChar: r
Encoding: 114 114 19
Width: 1024
VWidth: 0
Flags: W
HStem: 0 128<768 896> 256 128<256 640> 640 128<256 768>
VStem: 128 128<0 256 384 640> 640 128<128 256> 768 128<0 128 384 640>
LayerCount: 2
Fore
SplineSet
128 0 m 1xf8
 128 768 l 1
 768 768 l 1
 768 640 l 1
 256 640 l 1
 256 384 l 1
 768 384 l 1xf4
 768 128 l 1
 640 128 l 1
 640 256 l 1
 256 256 l 1
 256 0 l 1
 128 0 l 1xf8
768 384 m 1
 768 640 l 1
 896 640 l 1
 896 384 l 1
 768 384 l 1
768 0 m 1
 768 128 l 1xf8
 896 128 l 1
 896 0 l 1
 768 0 l 1
EndSplineSet
EndChar

StartChar: d
Encoding: 100 100 20
Width: 1024
VWidth: 0
Flags: W
HStem: 0 128<256 640> 128 128<640 768> 512 128<640 768> 640 128<256 640>
VStem: 128 128<128 640> 640 128<128 256 512 640> 768 128<256 512>
LayerCount: 2
Fore
SplineSet
128 0 m 1x9c
 128 768 l 1
 640 768 l 1x9c
 640 640 l 1x2c
 256 640 l 1
 256 128 l 1
 640 128 l 1
 640 0 l 1
 128 0 l 1x9c
640 512 m 1x2c
 640 640 l 1
 768 640 l 1
 768 512 l 1
 640 512 l 1x2c
768 256 m 1x6c
 768 512 l 1x6c
 896 512 l 1
 896 256 l 1x6a
 768 256 l 1x6c
640 128 m 1x8c
 640 256 l 1
 768 256 l 1
 768 128 l 1x4c
 640 128 l 1x8c
EndSplineSet
EndChar

StartChar: glyph21
Encoding: 261 9631 21
Width: 1024
VWidth: 0
Flags: W
HStem: -128 512<0 512>
VStem: 512 512<384 896>
LayerCount: 2
Fore
SplineSet
512 384 m 1
 512 896 l 1
 1024 896 l 1
 1024 -128 l 1
 0 -128 l 1
 0 384 l 1
 512 384 l 1
EndSplineSet
EndChar

StartChar: glyph22
Encoding: 262 9625 22
Width: 1024
VWidth: 0
Flags: W
HStem: -128 512<512 1024>
VStem: 0 512<384 896>
LayerCount: 2
Fore
SplineSet
0 -128 m 1
 0 896 l 1
 512 896 l 1
 512 384 l 1
 1024 384 l 1
 1024 -128 l 1
 0 -128 l 1
EndSplineSet
EndChar

StartChar: glyph23
Encoding: 263 9618 23
Width: 1024
VWidth: 0
Flags: W
HStem: -128 128<128 256 384 512 640 768 896 1024> 0 128<0 128 256 384 512 640 768 896> 128 128<128 256 384 512 640 768 896 1024> 256 128<0 128 256 384 512 640 768 896> 384 128<128 256 384 512 640 768 896 1024> 512 128<0 128 256 384 512 640 768 896> 640 128<128 256 384 512 640 768 896 1024> 768 128<0 128 256 384 512 640 768 896>
VStem: 0 128<0 128 256 384 512 640 768 896> 128 128<-128 0 128 256 384 512 640 768> 256 128<0 128 256 384 512 640 768 896> 384 128<-128 0 128 256 384 512 640 768> 512 128<0 128 256 384 512 640 768 896> 640 128<-128 0 128 256 384 512 640 768> 768 128<0 128 256 384 512 640 768 896> 896 128<-128 0 128 256 384 512 640 768>
LayerCount: 2
Fore
SplineSet
0 768 m 1x0180
 0 896 l 1
 128 896 l 1x0180
 128 768 l 1x0280
 0 768 l 1x0180
256 768 m 1x0240
 256 896 l 1
 384 896 l 1x0120
 384 768 l 1x0220
 256 768 l 1x0240
512 768 m 1x0210
 512 896 l 1
 640 896 l 1x0108
 640 768 l 1x0208
 512 768 l 1x0210
768 768 m 1x0204
 768 896 l 1
 896 896 l 1x0102
 896 768 l 1x0202
 768 768 l 1x0204
128 640 m 1x0480
 128 768 l 1x0280
 256 768 l 1x0240
 256 640 l 1x0440
 128 640 l 1x0480
384 640 m 1x0420
 384 768 l 1x0220
 512 768 l 1x0210
 512 640 l 1x0410
 384 640 l 1x0420
640 640 m 1x0408
 640 768 l 1x0208
 768 768 l 1x0204
 768 640 l 1x0404
 640 640 l 1x0408
896 640 m 1x0402
 896 768 l 1x0202
 1024 768 l 1
 1024 640 l 1x0201
 896 640 l 1x0402
0 512 m 1x0480
 0 640 l 1
 128 640 l 1x0480
 128 512 l 1x0880
 0 512 l 1x0480
256 512 m 1x0840
 256 640 l 1x0440
 384 640 l 1x0420
 384 512 l 1x0820
 256 512 l 1x0840
512 512 m 1x0810
 512 640 l 1x0410
 640 640 l 1x0408
 640 512 l 1x0808
 512 512 l 1x0810
768 512 m 1x0804
 768 640 l 1x0404
 896 640 l 1x0402
 896 512 l 1x0802
 768 512 l 1x0804
128 384 m 1x1080
 128 512 l 1x0880
 256 512 l 1x0840
 256 384 l 1x1040
 128 384 l 1x1080
384 384 m 1x1020
 384 512 l 1x0820
 512 512 l 1x0810
 512 384 l 1x1010
 384 384 l 1x1020
640 384 m 1x1008
 640 512 l 1x0808
 768 512 l 1x0804
 768 384 l 1x1004
 640 384 l 1x1008
896 384 m 1x1002
 896 512 l 1x0802
 1024 512 l 1
 1024 384 l 1x0801
 896 384 l 1x1002
0 256 m 1x1080
 0 384 l 1
 128 384 l 1x1080
 128 256 l 1x2080
 0 256 l 1x1080
256 256 m 1x2040
 256 384 l 1x1040
 384 384 l 1x1020
 384 256 l 1x2020
 256 256 l 1x2040
512 256 m 1x2010
 512 384 l 1x1010
 640 384 l 1x1008
 640 256 l 1x2008
 512 256 l 1x2010
768 256 m 1x2004
 768 384 l 1x1004
 896 384 l 1x1002
 896 256 l 1x2002
 768 256 l 1x2004
128 128 m 1x4080
 128 256 l 1x2080
 256 256 l 1x2040
 256 128 l 1x4040
 128 128 l 1x4080
384 128 m 1x4020
 384 256 l 1x2020
 512 256 l 1x2010
 512 128 l 1x4010
 384 128 l 1x4020
640 128 m 1x4008
 640 256 l 1x2008
 768 256 l 1x2004
 768 128 l 1x4004
 640 128 l 1x4008
896 128 m 1x4002
 896 256 l 1x2002
 1024 256 l 1
 1024 128 l 1x2001
 896 128 l 1x4002
0 0 m 1x4080
 0 128 l 1
 128 128 l 1x4080
 128 0 l 1x8080
 0 0 l 1x4080
256 0 m 1x8040
 256 128 l 1x4040
 384 128 l 1x4020
 384 0 l 1x8020
 256 0 l 1x8040
512 0 m 1x8010
 512 128 l 1x4010
 640 128 l 1x4008
 640 0 l 1x8008
 512 0 l 1x8010
768 0 m 1x8004
 768 128 l 1x4004
 896 128 l 1x4002
 896 0 l 1x8002
 768 0 l 1x8004
128 -128 m 1x8040
 128 0 l 1x8080
 256 0 l 1
 256 -128 l 1
 128 -128 l 1x8040
384 -128 m 1x8010
 384 0 l 1x8020
 512 0 l 1
 512 -128 l 1
 384 -128 l 1x8010
640 -128 m 1x8004
 640 0 l 1x8008
 768 0 l 1
 768 -128 l 1
 640 -128 l 1x8004
896 -128 m 1x8001
 896 0 l 1x8002
 1024 0 l 1
 1024 -128 l 1
 896 -128 l 1x8001
EndSplineSet
EndChar

StartChar: glyph24
Encoding: 264 9624 24
Width: 1024
VWidth: 0
Flags: W
HStem: 384 512<0 512>
VStem: 0 512<384 896>
LayerCount: 2
Fore
SplineSet
0 384 m 1
 0 896 l 1
 512 896 l 1
 512 384 l 1
 0 384 l 1
EndSplineSet
EndChar

StartChar: glyph25
Encoding: 265 9630 25
Width: 1024
VWidth: 0
Flags: W
HStem: -128 512<0 512> 384 512<512 1024>
VStem: 0 512<-128 384> 512 512<384 896>
LayerCount: 2
Fore
SplineSet
512 384 m 1xa0
 512 896 l 1
 1024 896 l 1
 1024 384 l 1x50
 512 384 l 1xa0
0 -128 m 1xa0
 0 384 l 1
 512 384 l 1
 512 -128 l 1
 0 -128 l 1xa0
EndSplineSet
EndChar

StartChar: e
Encoding: 101 101 26
Width: 1024
VWidth: 0
Flags: W
HStem: 0 128<256 896> 384 128<256 768> 640 128<256 896>
VStem: 128 128<128 384 512 640>
LayerCount: 2
Fore
SplineSet
128 0 m 1
 128 768 l 1
 896 768 l 1
 896 640 l 1
 256 640 l 1
 256 512 l 1
 768 512 l 1
 768 384 l 1
 256 384 l 1
 256 128 l 1
 896 128 l 1
 896 0 l 1
 128 0 l 1
EndSplineSet
EndChar

StartChar: s
Encoding: 115 115 27
Width: 1024
VWidth: 0
Flags: W
HStem: 0 128<256 768> 128 128<128 256> 384 128<256 768> 512 128<128 256> 640 128<256 768>
VStem: 128 128<128 256 512 640> 256 512<0 128 384 512 640 768> 768 128<128 384>
LayerCount: 2
Fore
SplineSet
256 640 m 1x14
 256 768 l 1
 768 768 l 1
 768 640 l 1x0a
 256 640 l 1x14
128 512 m 1x14
 128 640 l 1
 256 640 l 1x14
 256 512 l 1x24
 128 512 l 1x14
256 384 m 1x22
 256 512 l 1x24
 768 512 l 1
 768 384 l 1
 256 384 l 1x22
768 128 m 1x82
 768 384 l 1xa2
 896 384 l 1
 896 128 l 1x61
 768 128 l 1x82
128 128 m 1x44
 128 256 l 1
 256 256 l 1x44
 256 128 l 1x84
 128 128 l 1x44
256 0 m 1x82
 256 128 l 1x84
 768 128 l 1
 768 0 l 1
 256 0 l 1x82
EndSplineSet
EndChar

StartChar: b
Encoding: 98 98 28
Width: 1024
VWidth: 0
Flags: W
HStem: 0 128<256 768> 512 128<768 896> 640 128<256 768>
VStem: 128 128<128 384 512 640> 768 128<128 384 512 640>
LayerCount: 2
Fore
SplineSet
128 0 m 1xd8
 128 768 l 1
 768 768 l 1xb8
 768 640 l 1xd8
 256 640 l 1xb8
 256 512 l 1
 768 512 l 1
 768 384 l 1
 256 384 l 1
 256 128 l 1
 768 128 l 1
 768 0 l 1
 128 0 l 1xd8
768 512 m 1xd8
 768 640 l 1
 896 640 l 1
 896 512 l 1
 768 512 l 1xd8
768 128 m 1
 768 384 l 1
 896 384 l 1
 896 128 l 1
 768 128 l 1
EndSplineSet
EndChar

StartChar: I
Encoding: 73 73 29
Width: 1024
VWidth: 0
Flags: W
HStem: 0 128<256 512 640 896> 640 128<256 512 640 896>
VStem: 512 128<128 640>
LayerCount: 2
Fore
SplineSet
256 640 m 1
 256 768 l 1
 896 768 l 1
 896 640 l 1
 640 640 l 1
 640 128 l 1
 896 128 l 1
 896 0 l 1
 256 0 l 1
 256 128 l 1
 512 128 l 1
 512 640 l 1
 256 640 l 1
EndSplineSet
EndChar

StartChar: C
Encoding: 67 67 30
Width: 1024
VWidth: 0
Flags: W
HStem: 0 128<256 768> 128 128<768 896> 512 128<768 896> 640 128<256 768>
VStem: 128 128<128 640> 768 128<128 256 512 640>
LayerCount: 2
Fore
SplineSet
256 640 m 1x1c
 256 768 l 1
 768 768 l 1x1c
 768 640 l 1x2c
 256 640 l 1x1c
128 128 m 1x4c
 128 640 l 1
 256 640 l 1
 256 128 l 1x9c
 128 128 l 1x4c
768 512 m 1x2c
 768 640 l 1
 896 640 l 1
 896 512 l 1
 768 512 l 1x2c
768 128 m 1x8c
 768 256 l 1
 896 256 l 1
 896 128 l 1x4c
 768 128 l 1x8c
256 0 m 1x8c
 256 128 l 1
 768 128 l 1
 768 0 l 1
 256 0 l 1x8c
EndSplineSet
EndChar

StartChar: B
Encoding: 66 66 31
Width: 1024
VWidth: 0
Flags: W
HStem: 0 128<256 768> 512 128<768 896> 640 128<256 768>
VStem: 128 128<128 384 512 640> 768 128<128 384 512 640>
LayerCount: 2
Fore
SplineSet
128 0 m 1xd8
 128 768 l 1
 768 768 l 1xb8
 768 640 l 1xd8
 256 640 l 1xb8
 256 512 l 1
 768 512 l 1
 768 384 l 1
 256 384 l 1
 256 128 l 1
 768 128 l 1
 768 0 l 1
 128 0 l 1xd8
768 512 m 1xd8
 768 640 l 1
 896 640 l 1
 896 512 l 1
 768 512 l 1xd8
768 128 m 1
 768 384 l 1
 896 384 l 1
 896 128 l 1
 768 128 l 1
EndSplineSet
EndChar

StartChar: H
Encoding: 72 72 32
Width: 1024
VWidth: 0
Flags: W
HStem: 0 21G<128 256 768 896> 0 21G<128 256 768 896> 384 128<256 768> 748 20G<128 256 768 896> 748 20G<128 256 768 896>
VStem: 128 128<0 384 512 768> 768 128<0 384 512 768>
LayerCount: 2
Fore
SplineSet
128 0 m 1xb6
 128 768 l 1
 256 768 l 1
 256 512 l 1
 768 512 l 1
 768 768 l 1
 896 768 l 1
 896 0 l 1
 768 0 l 1
 768 384 l 1
 256 384 l 1
 256 0 l 1
 128 0 l 1xb6
EndSplineSet
EndChar

StartChar: c
Encoding: 99 99 33
Width: 1024
VWidth: 0
Flags: W
HStem: 0 128<256 768> 128 128<768 896> 512 128<768 896> 640 128<256 768>
VStem: 128 128<128 640> 768 128<128 256 512 640>
LayerCount: 2
Fore
SplineSet
256 640 m 1x1c
 256 768 l 1
 768 768 l 1x1c
 768 640 l 1x2c
 256 640 l 1x1c
128 128 m 1x4c
 128 640 l 1
 256 640 l 1
 256 128 l 1x9c
 128 128 l 1x4c
768 512 m 1x2c
 768 640 l 1
 896 640 l 1
 896 512 l 1
 768 512 l 1x2c
768 128 m 1x8c
 768 256 l 1
 896 256 l 1
 896 128 l 1x4c
 768 128 l 1x8c
256 0 m 1x8c
 256 128 l 1
 768 128 l 1
 768 0 l 1
 256 0 l 1x8c
EndSplineSet
EndChar

StartChar: colon
Encoding: 58 58 34
Width: 1024
VWidth: 0
Flags: W
HStem: 0 128<384 512> 384 128<384 512>
VStem: 384 128<0 128 384 512>
LayerCount: 2
Fore
SplineSet
384 384 m 1
 384 512 l 1
 512 512 l 1
 512 384 l 1
 384 384 l 1
384 0 m 1
 384 128 l 1
 512 128 l 1
 512 0 l 1
 384 0 l 1
EndSplineSet
EndChar

StartChar: at
Encoding: 64 64 35
Width: 1024
VWidth: 0
Flags: W
HStem: 0 128<384 512 640 768> 384 128<384 512> 512 128<256 384> 640 128<384 768>
VStem: 256 128<128 384 512 640> 384 128<384 512> 768 128<128 640>
LayerCount: 2
Fore
SplineSet
384 640 m 1xaa
 384 768 l 1
 768 768 l 1
 768 640 l 1x96
 384 640 l 1xaa
256 512 m 1xaa
 256 640 l 1
 384 640 l 1xaa
 384 512 l 1xca
 256 512 l 1xaa
768 128 m 1
 768 640 l 1
 896 640 l 1x92
 896 128 l 1
 768 128 l 1
384 384 m 1xca
 384 512 l 1xca
 512 512 l 1
 512 384 l 1xc6
 384 384 l 1xca
256 128 m 1
 256 384 l 1
 384 384 l 1
 384 128 l 1
 256 128 l 1
512 128 m 1xc6
 512 384 l 1
 640 384 l 1
 640 128 l 1
 768 128 l 1
 768 0 l 1
 384 0 l 1xc6
 384 128 l 1xca
 512 128 l 1xc6
EndSplineSet
EndChar

StartChar: F
Encoding: 70 70 36
Width: 1024
VWidth: 0
Flags: W
HStem: 0 21G<128 256> 0 21G<128 256> 384 128<256 768> 640 128<256 896>
VStem: 128 128<0 384 512 640>
LayerCount: 2
Fore
SplineSet
128 0 m 1xb8
 128 768 l 1
 896 768 l 1
 896 640 l 1
 256 640 l 1
 256 512 l 1
 768 512 l 1
 768 384 l 1
 256 384 l 1
 256 0 l 1
 128 0 l 1xb8
EndSplineSet
EndChar

StartChar: G
Encoding: 71 71 37
Width: 1024
VWidth: 0
Flags: W
HStem: 0 128<256 768> 256 128<512 768> 512 128<768 896> 640 128<256 768>
VStem: 128 128<128 640> 768 128<128 256 512 640>
LayerCount: 2
Fore
SplineSet
256 640 m 1xdc
 256 768 l 1
 768 768 l 1xdc
 768 640 l 1xec
 256 640 l 1xdc
128 128 m 1
 128 640 l 1
 256 640 l 1
 256 128 l 1
 128 128 l 1
768 512 m 1xec
 768 640 l 1
 896 640 l 1
 896 512 l 1
 768 512 l 1xec
512 256 m 1
 512 384 l 1
 896 384 l 1
 896 128 l 1
 768 128 l 1
 768 256 l 1
 512 256 l 1
256 0 m 1
 256 128 l 1
 768 128 l 1
 768 0 l 1
 256 0 l 1
EndSplineSet
EndChar

StartChar: A
Encoding: 65 65 38
Width: 1024
VWidth: 0
Flags: W
HStem: 0 21G<128 256 768 896> 0 21G<128 256 768 896> 256 128<256 768> 640 128<256 768>
VStem: 128 128<0 256 384 640> 768 128<0 256 384 640>
LayerCount: 2
Fore
SplineSet
256 640 m 1x3c
 256 768 l 1
 768 768 l 1
 768 640 l 1
 256 640 l 1x3c
128 0 m 1xbc
 128 640 l 1
 256 640 l 1
 256 384 l 1
 768 384 l 1
 768 640 l 1
 896 640 l 1
 896 0 l 1
 768 0 l 1
 768 256 l 1
 256 256 l 1
 256 0 l 1
 128 0 l 1xbc
EndSplineSet
EndChar

StartChar: semicolon
Encoding: 59 59 39
Width: 1024
VWidth: 0
Flags: W
HStem: -128 128<256 384> 0 21G<384 512> 0 21G<384 512> 512 128<384 512>
VStem: 256 128<-128 0> 384 128<0 256 512 640>
LayerCount: 2
Fore
SplineSet
384 512 m 1x14
 384 640 l 1
 512 640 l 1
 512 512 l 1
 384 512 l 1x14
384 0 m 1x98
 384 256 l 1
 512 256 l 1
 512 0 l 1x54
 384 0 l 1x98
256 -128 m 1x98
 256 0 l 1
 384 0 l 1
 384 -128 l 1
 256 -128 l 1x98
EndSplineSet
EndChar

StartChar: equal
Encoding: 61 61 40
Width: 1024
VWidth: 0
Flags: W
HStem: 128 128<256 896> 384 128<256 896>
LayerCount: 2
Fore
SplineSet
256 384 m 1
 256 512 l 1
 896 512 l 1
 896 384 l 1
 256 384 l 1
256 128 m 1
 256 256 l 1
 896 256 l 1
 896 128 l 1
 256 128 l 1
EndSplineSet
EndChar

StartChar: K
Encoding: 75 75 41
Width: 1024
VWidth: 0
Flags: W
HStem: 0 128<768 896> 128 128<640 768> 256 128<512 640> 512 128<512 640> 640 128<640 768>
VStem: 128 128<0 384 512 768> 512 128<256 384 512 640> 640 128<128 256 640 768> 768 128<0 128>
LayerCount: 2
Fore
SplineSet
128 0 m 1xb6
 128 768 l 1
 256 768 l 1xae
 256 512 l 1
 512 512 l 1
 512 384 l 1
 256 384 l 1
 256 0 l 1
 128 0 l 1xb6
640 640 m 1x16
 640 768 l 1
 768 768 l 1
 768 640 l 1x0d
 640 640 l 1x16
512 512 m 1x16
 512 640 l 1
 640 640 l 1
 640 512 l 1
 512 512 l 1x16
512 256 m 1x26
 512 384 l 1
 640 384 l 1x26
 640 256 l 1x46
 512 256 l 1x26
640 128 m 1x45
 640 256 l 1x46
 768 256 l 1x45
 768 128 l 1x85
 640 128 l 1x45
768 0 m 1x8480
 768 128 l 1x85
 896 128 l 1
 896 0 l 1
 768 0 l 1x8480
EndSplineSet
EndChar

StartChar: one
Encoding: 49 49 42
Width: 1024
VWidth: 0
Flags: W
HStem: 0 128<256 512 640 896> 512 128<256 384> 640 128<384 512>
VStem: 256 128<512 640> 512 128<128 640>
LayerCount: 2
Fore
SplineSet
384 640 m 1xd8
 384 768 l 1
 640 768 l 1
 640 128 l 1
 896 128 l 1
 896 0 l 1
 256 0 l 1
 256 128 l 1
 512 128 l 1
 512 640 l 1xb8
 384 640 l 1xd8
256 512 m 1xd8
 256 640 l 1
 384 640 l 1
 384 512 l 1
 256 512 l 1xd8
EndSplineSet
EndChar

StartChar: zero
Encoding: 48 48 43
Width: 1024
VWidth: 0
Flags: W
HStem: 0 128<384 768> 256 128<384 512> 384 128<512 640> 640 128<256 640>
VStem: 128 128<256 640> 384 128<256 384> 512 128<384 512> 768 128<128 512>
LayerCount: 2
Fore
SplineSet
256 640 m 1xbb
 256 768 l 1
 768 768 l 1
 768 640 l 1
 896 640 l 1
 896 128 l 1
 768 128 l 1
 768 512 l 1
 640 512 l 1
 640 640 l 1
 256 640 l 1xbb
128 128 m 1
 128 640 l 1
 256 640 l 1
 256 256 l 1
 384 256 l 1
 384 128 l 1xdd
 768 128 l 1
 768 0 l 1
 256 0 l 1
 256 128 l 1
 128 128 l 1
512 384 m 1
 512 512 l 1
 640 512 l 1
 640 384 l 1xbb
 512 384 l 1
384 256 m 1xdd
 384 384 l 1
 512 384 l 1
 512 256 l 1
 384 256 l 1xdd
EndSplineSet
EndChar

StartChar: J
Encoding: 74 74 44
Width: 1024
VWidth: 0
Flags: W
HStem: 0 128<256 768> 748 20G<768 896> 748 20G<768 896>
VStem: 128 128<128 384> 768 128<128 768>
LayerCount: 2
Fore
SplineSet
768 128 m 1xd8
 768 768 l 1
 896 768 l 1
 896 128 l 1
 768 128 l 1xd8
128 128 m 1
 128 384 l 1
 256 384 l 1
 256 128 l 1
 128 128 l 1
256 0 m 1
 256 128 l 1
 768 128 l 1
 768 0 l 1
 256 0 l 1
EndSplineSet
EndChar

StartChar: less
Encoding: 60 60 45
Width: 1024
VWidth: 0
Flags: W
HStem: 0 128<640 768> 128 128<512 640> 256 128<384 512> 384 128<512 640> 512 128<640 768>
VStem: 384 128<256 384> 512 128<128 256 384 512> 640 128<0 128 512 640>
LayerCount: 2
Fore
SplineSet
640 512 m 1x12
 640 640 l 1
 768 640 l 1
 768 512 l 1x09
 640 512 l 1x12
512 384 m 1x24
 512 512 l 1
 640 512 l 1
 640 384 l 1x12
 512 384 l 1x24
384 256 m 1x24
 384 384 l 1
 512 384 l 1x24
 512 256 l 1x44
 384 256 l 1x24
512 128 m 1x42
 512 256 l 1x44
 640 256 l 1x42
 640 128 l 1x82
 512 128 l 1x42
640 0 m 1x81
 640 128 l 1x82
 768 128 l 1
 768 0 l 1
 640 0 l 1x81
EndSplineSet
EndChar

StartChar: Y
Encoding: 89 89 46
Width: 1024
VWidth: 0
Flags: W
HStem: 0 21G<384 512> 0 21G<384 512> 384 128<256 384 512 640> 512 128<128 256 640 768> 640 128<0 128 768 896>
VStem: 0 128<640 768> 128 128<512 640> 256 128<384 512> 384 128<0 384> 512 128<384 512> 640 128<512 640> 768 128<640 768>
LayerCount: 2
Fore
SplineSet
0 640 m 1x0c
 0 768 l 1
 128 768 l 1x0c
 128 640 l 1x14
 0 640 l 1x0c
768 640 m 1x1020
 768 768 l 1
 896 768 l 1
 896 640 l 1x0810
 768 640 l 1x1020
128 512 m 1x12
 128 640 l 1x14
 256 640 l 1x12
 256 512 l 1x22
 128 512 l 1x12
640 512 m 1x2040
 640 640 l 1
 768 640 l 1
 768 512 l 1x1020
 640 512 l 1x2040
256 384 m 1x21
 256 512 l 1x22
 384 512 l 1
 384 384 l 1
 256 384 l 1x21
512 384 m 1x2080
 512 512 l 1
 640 512 l 1
 640 384 l 1x2040
 512 384 l 1x2080
384 0 m 1xa080
 384 384 l 1xa1
 512 384 l 1
 512 0 l 1
 384 0 l 1xa080
EndSplineSet
EndChar

StartChar: sterling
Encoding: 163 163 47
Width: 1024
VWidth: 0
Flags: W
HStem: 0 128<128 256 384 896> 384 128<128 256 384 640> 512 128<768 896> 640 128<384 768>
VStem: 256 128<128 384 512 640> 768 128<512 640>
LayerCount: 2
Fore
SplineSet
384 640 m 1x9c
 384 768 l 1
 768 768 l 1x9c
 768 640 l 1xac
 384 640 l 1x9c
256 512 m 1xdc
 256 640 l 1
 384 640 l 1
 384 512 l 1
 640 512 l 1
 640 384 l 1
 384 384 l 1
 384 128 l 1
 896 128 l 1
 896 0 l 1
 128 0 l 1
 128 128 l 1
 256 128 l 1
 256 384 l 1
 128 384 l 1
 128 512 l 1
 256 512 l 1xdc
768 512 m 1xac
 768 640 l 1
 896 640 l 1
 896 512 l 1
 768 512 l 1xac
EndSplineSet
EndChar

StartChar: L
Encoding: 76 76 48
Width: 1024
VWidth: 0
Flags: W
HStem: 0 128<256 896> 748 20G<128 256> 748 20G<128 256>
VStem: 128 128<128 768>
LayerCount: 2
Fore
SplineSet
128 0 m 1xd0
 128 768 l 1
 256 768 l 1
 256 128 l 1
 896 128 l 1
 896 0 l 1
 128 0 l 1xd0
EndSplineSet
EndChar

StartChar: greater
Encoding: 62 62 49
Width: 1024
VWidth: 0
Flags: W
HStem: 0 128<384 512> 128 128<512 640> 256 128<640 768> 384 128<512 640> 512 128<384 512>
VStem: 384 128<0 128 512 640> 512 128<128 256 384 512> 640 128<256 384>
LayerCount: 2
Fore
SplineSet
384 512 m 1x0c
 384 640 l 1
 512 640 l 1x0c
 512 512 l 1x14
 384 512 l 1x0c
512 384 m 1x12
 512 512 l 1x14
 640 512 l 1x12
 640 384 l 1x22
 512 384 l 1x12
640 256 m 1x42
 640 384 l 1x22
 768 384 l 1
 768 256 l 1x21
 640 256 l 1x42
512 128 m 1x84
 512 256 l 1
 640 256 l 1
 640 128 l 1x42
 512 128 l 1x84
384 0 m 1x84
 384 128 l 1
 512 128 l 1
 512 0 l 1
 384 0 l 1x84
EndSplineSet
EndChar

StartChar: question
Encoding: 63 63 50
Width: 1024
VWidth: 0
Flags: W
HStem: 0 128<512 640> 256 128<512 640> 384 128<640 768> 512 128<128 256 768 896> 640 128<256 768>
VStem: 128 128<512 640> 512 128<0 128 256 384> 640 128<384 512> 768 128<512 640>
LayerCount: 2
Fore
SplineSet
256 640 m 1x9480
 256 768 l 1
 768 768 l 1x8c80
 768 640 l 1
 256 640 l 1x9480
128 512 m 1x94
 128 640 l 1
 256 640 l 1
 256 512 l 1
 128 512 l 1x94
768 512 m 1xa5
 768 640 l 1
 896 640 l 1
 896 512 l 1x9480
 768 512 l 1xa5
640 384 m 1xc6
 640 512 l 1
 768 512 l 1
 768 384 l 1xa5
 640 384 l 1xc6
512 256 m 1xc6
 512 384 l 1
 640 384 l 1
 640 256 l 1
 512 256 l 1xc6
512 0 m 1
 512 128 l 1
 640 128 l 1
 640 0 l 1
 512 0 l 1
EndSplineSet
EndChar

StartChar: M
Encoding: 77 77 51
Width: 1024
VWidth: 0
Flags: W
HStem: 0 21G<128 256 768 896> 0 21G<128 256 768 896> 384 128<384 640> 512 128<256 384 640 768> 748 20G<128 256 768 896> 748 20G<128 256 768 896>
VStem: 128 128<0 512 640 768> 768 128<0 512 640 768>
LayerCount: 2
Fore
SplineSet
128 0 m 1x93
 128 768 l 1
 256 768 l 1
 256 640 l 1
 384 640 l 1x9b
 384 512 l 1x23
 256 512 l 1
 256 0 l 1
 128 0 l 1x93
768 640 m 1
 768 768 l 1
 896 768 l 1
 896 0 l 1
 768 0 l 1
 768 512 l 1x9b
 640 512 l 1x23
 640 640 l 1
 768 640 l 1
384 384 m 1x23
 384 512 l 1
 640 512 l 1
 640 384 l 1
 384 384 l 1x23
EndSplineSet
EndChar

StartChar: X
Encoding: 88 88 52
Width: 1024
VWidth: 0
Flags: W
HStem: 0 128<128 256 768 896> 128 128<256 384 640 768> 256 256<384 640> 512 128<256 384 640 768> 640 128<128 256 768 896>
VStem: 128 128<0 128 640 768> 256 128<128 256 512 640> 384 256<256 512> 640 128<128 256 512 640> 768 128<0 128 640 768>
LayerCount: 2
Fore
SplineSet
128 640 m 1x0c
 128 768 l 1
 256 768 l 1x0c
 256 640 l 1x14
 128 640 l 1x0c
768 640 m 1x1080
 768 768 l 1
 896 768 l 1
 896 640 l 1x0840
 768 640 l 1x1080
256 512 m 1x12
 256 640 l 1x14
 384 640 l 1x12
 384 512 l 1x22
 256 512 l 1x12
640 512 m 1x21
 640 640 l 1
 768 640 l 1
 768 512 l 1x1080
 640 512 l 1x21
384 256 m 1x42
 384 512 l 1x22
 640 512 l 1x21
 640 256 l 1x41
 384 256 l 1x42
256 128 m 1x84
 256 256 l 1
 384 256 l 1
 384 128 l 1x42
 256 128 l 1x84
640 128 m 1x4080
 640 256 l 1x41
 768 256 l 1x4080
 768 128 l 1x8080
 640 128 l 1x4080
128 0 m 1x84
 128 128 l 1
 256 128 l 1
 256 0 l 1
 128 0 l 1x84
768 0 m 1x8040
 768 128 l 1x8080
 896 128 l 1
 896 0 l 1
 768 0 l 1x8040
EndSplineSet
EndChar

StartChar: bracketleft
Encoding: 91 91 53
Width: 1024
VWidth: 0
Flags: W
HStem: 0 128<640 768> 640 128<640 768>
VStem: 512 256<0 128 640 768> 512 128<128 640>
LayerCount: 2
Fore
SplineSet
512 0 m 1xe0
 512 768 l 1
 768 768 l 1
 768 640 l 1xe0
 640 640 l 1
 640 128 l 1xd0
 768 128 l 1
 768 0 l 1
 512 0 l 1xe0
EndSplineSet
EndChar

StartChar: U
Encoding: 85 85 54
Width: 1024
VWidth: 0
Flags: W
HStem: 0 128<256 768> 748 20G<128 256 768 896> 748 20G<128 256 768 896>
VStem: 128 128<128 768> 768 128<128 768>
LayerCount: 2
Fore
SplineSet
128 128 m 1xd8
 128 768 l 1
 256 768 l 1
 256 128 l 1
 128 128 l 1xd8
768 128 m 1
 768 768 l 1
 896 768 l 1
 896 128 l 1
 768 128 l 1
256 0 m 1
 256 128 l 1
 768 128 l 1
 768 0 l 1
 256 0 l 1
EndSplineSet
EndChar

StartChar: four
Encoding: 52 52 55
Width: 1024
VWidth: 0
Flags: W
HStem: 0 21G<512 640> 0 21G<512 640> 128 128<256 512 640 896> 384 128<256 384> 748 20G<512 640> 748 20G<512 640>
VStem: 128 128<256 384> 256 128<384 512> 512 128<0 128 256 512 640 768>
LayerCount: 2
Fore
SplineSet
512 640 m 1xb980
 512 768 l 1
 640 768 l 1
 640 256 l 1
 896 256 l 1
 896 128 l 1
 640 128 l 1
 640 0 l 1
 512 0 l 1
 512 128 l 1
 128 128 l 1
 128 384 l 1
 256 384 l 1
 256 256 l 1xba80
 512 256 l 1
 512 512 l 1
 384 512 l 1
 384 640 l 1
 512 640 l 1xb980
256 384 m 1
 256 512 l 1
 384 512 l 1
 384 384 l 1x3180
 256 384 l 1
EndSplineSet
EndChar

StartChar: period
Encoding: 46 46 56
Width: 1024
VWidth: 0
Flags: W
HStem: 0 256<384 640>
VStem: 384 256<0 256>
LayerCount: 2
Fore
SplineSet
384 0 m 1
 384 256 l 1
 640 256 l 1
 640 0 l 1
 384 0 l 1
EndSplineSet
EndChar

StartChar: slash
Encoding: 47 47 57
Width: 1024
VWidth: 0
Flags: W
HStem: 0 128<256 384> 128 128<384 512> 256 128<512 640> 384 128<640 768> 512 128<768 896>
VStem: 256 128<0 128> 384 128<128 256> 512 128<256 384> 640 128<384 512> 768 128<512 640>
LayerCount: 2
Fore
SplineSet
768 512 m 1x1080
 768 640 l 1
 896 640 l 1
 896 512 l 1x0840
 768 512 l 1x1080
640 384 m 1x21
 640 512 l 1
 768 512 l 1
 768 384 l 1x1080
 640 384 l 1x21
512 256 m 1x42
 512 384 l 1
 640 384 l 1
 640 256 l 1x21
 512 256 l 1x42
384 128 m 1x84
 384 256 l 1
 512 256 l 1
 512 128 l 1x42
 384 128 l 1x84
256 0 m 1x84
 256 128 l 1
 384 128 l 1
 384 0 l 1
 256 0 l 1x84
EndSplineSet
EndChar

StartChar: five
Encoding: 53 53 58
Width: 1024
VWidth: 0
Flags: W
HStem: 0 128<256 768> 128 128<128 256> 384 128<256 768> 640 128<256 896>
VStem: 128 128<128 256 512 640> 768 128<128 384>
LayerCount: 2
Fore
SplineSet
128 384 m 1x3c
 128 768 l 1
 896 768 l 1
 896 640 l 1
 256 640 l 1
 256 512 l 1
 768 512 l 1
 768 384 l 1
 128 384 l 1x3c
768 128 m 1xbc
 768 384 l 1
 896 384 l 1
 896 128 l 1x7c
 768 128 l 1xbc
128 128 m 1
 128 256 l 1
 256 256 l 1x7c
 256 128 l 1xbc
 128 128 l 1
256 0 m 1xbc
 256 128 l 1
 768 128 l 1
 768 0 l 1
 256 0 l 1xbc
EndSplineSet
EndChar

StartChar: T
Encoding: 84 84 59
Width: 1024
VWidth: 0
Flags: W
HStem: 0 21G<384 512> 0 21G<384 512> 640 128<0 384 512 896>
VStem: 384 128<0 640>
LayerCount: 2
Fore
SplineSet
0 640 m 1xb0
 0 768 l 1
 896 768 l 1
 896 640 l 1
 512 640 l 1
 512 0 l 1
 384 0 l 1
 384 640 l 1
 0 640 l 1xb0
EndSplineSet
EndChar

StartChar: Z
Encoding: 90 90 60
Width: 1024
VWidth: 0
Flags: W
HStem: 0 128<128 256 384 896> 256 128<384 512> 384 128<512 640> 640 128<128 640 768 896>
VStem: 384 128<256 384> 512 128<384 512>
LayerCount: 2
Fore
SplineSet
128 640 m 1xb4
 128 768 l 1
 896 768 l 1
 896 640 l 1
 768 640 l 1
 768 512 l 1
 640 512 l 1
 640 640 l 1
 128 640 l 1xb4
512 384 m 1xd8
 512 512 l 1
 640 512 l 1
 640 384 l 1xb4
 512 384 l 1xd8
384 256 m 1xd8
 384 384 l 1
 512 384 l 1
 512 256 l 1
 384 256 l 1xd8
256 128 m 1
 256 256 l 1
 384 256 l 1
 384 128 l 1
 896 128 l 1
 896 0 l 1
 128 0 l 1
 128 128 l 1
 256 128 l 1
EndSplineSet
EndChar

StartChar: V
Encoding: 86 86 61
Width: 1024
VWidth: 0
Flags: W
HStem: 0 128<384 640> 128 128<256 384 640 768> 748 20G<128 256 768 896> 748 20G<128 256 768 896>
VStem: 128 128<256 768> 256 128<128 256> 640 128<128 256> 768 128<256 768>
LayerCount: 2
Fore
SplineSet
128 256 m 1x68
 128 768 l 1
 256 768 l 1
 256 256 l 1
 128 256 l 1x68
768 256 m 1x62
 768 768 l 1
 896 768 l 1
 896 256 l 1x61
 768 256 l 1x62
256 128 m 1x44
 256 256 l 1x48
 384 256 l 1x44
 384 128 l 1x84
 256 128 l 1x44
640 128 m 1x82
 640 256 l 1
 768 256 l 1
 768 128 l 1x42
 640 128 l 1x82
384 0 m 1x86
 384 128 l 1
 640 128 l 1
 640 0 l 1
 384 0 l 1x86
EndSplineSet
EndChar

StartChar: backslash
Encoding: 92 92 62
Width: 1024
VWidth: 0
Flags: W
HStem: 0 128<768 896> 128 128<640 768> 256 128<512 640> 384 128<384 512> 512 128<256 384> 640 128<128 256>
VStem: 128 128<640 768> 256 128<512 640> 384 128<384 512> 512 128<256 384> 640 128<128 256> 768 128<0 128>
LayerCount: 2
Fore
SplineSet
128 640 m 1x06
 128 768 l 1
 256 768 l 1x06
 256 640 l 1x0a
 128 640 l 1x06
256 512 m 1x09
 256 640 l 1x0a
 384 640 l 1x09
 384 512 l 1x11
 256 512 l 1x09
384 384 m 1x1080
 384 512 l 1x11
 512 512 l 1x1080
 512 384 l 1x2080
 384 384 l 1x1080
512 256 m 1x2040
 512 384 l 1x2080
 640 384 l 1x2040
 640 256 l 1x4040
 512 256 l 1x2040
640 128 m 1x4020
 640 256 l 1x4040
 768 256 l 1x4020
 768 128 l 1x8020
 640 128 l 1x4020
768 0 m 1x8010
 768 128 l 1x8020
 896 128 l 1
 896 0 l 1
 768 0 l 1x8010
EndSplineSet
EndChar

StartChar: O
Encoding: 79 79 63
Width: 1024
VWidth: 0
Flags: W
HStem: 0 128<256 768> 640 128<256 768>
VStem: 128 128<128 640> 768 128<128 640>
LayerCount: 2
Fore
SplineSet
256 640 m 1
 256 768 l 1
 768 768 l 1
 768 640 l 1
 256 640 l 1
128 128 m 1
 128 640 l 1
 256 640 l 1
 256 128 l 1
 128 128 l 1
768 128 m 1
 768 640 l 1
 896 640 l 1
 896 128 l 1
 768 128 l 1
256 0 m 1
 256 128 l 1
 768 128 l 1
 768 0 l 1
 256 0 l 1
EndSplineSet
EndChar

StartChar: hyphen
Encoding: 45 45 64
Width: 1024
VWidth: 0
Flags: W
HStem: 256 128<256 896>
LayerCount: 2
Fore
SplineSet
256 256 m 1
 256 384 l 1
 896 384 l 1
 896 256 l 1
 256 256 l 1
EndSplineSet
EndChar

StartChar: three
Encoding: 51 51 65
Width: 1024
VWidth: 0
Flags: W
HStem: 0 128<256 768> 128 128<128 256> 384 128<512 768> 512 128<128 256 768 896> 640 128<256 768>
VStem: 128 128<128 256 512 640> 768 128<128 384 512 640>
LayerCount: 2
Fore
SplineSet
256 640 m 1x16
 256 768 l 1
 768 768 l 1x0e
 768 640 l 1
 256 640 l 1x16
128 512 m 1x16
 128 640 l 1
 256 640 l 1
 256 512 l 1
 128 512 l 1x16
768 512 m 1x26
 768 640 l 1
 896 640 l 1
 896 512 l 1x16
 768 512 l 1x26
512 384 m 1x26
 512 512 l 1
 768 512 l 1
 768 384 l 1
 512 384 l 1x26
768 128 m 1x86
 768 384 l 1
 896 384 l 1
 896 128 l 1x66
 768 128 l 1x86
128 128 m 1
 128 256 l 1
 256 256 l 1x46
 256 128 l 1x86
 128 128 l 1
256 0 m 1x86
 256 128 l 1
 768 128 l 1
 768 0 l 1
 256 0 l 1x86
EndSplineSet
EndChar

StartChar: two
Encoding: 50 50 66
Width: 1024
VWidth: 0
Flags: W
HStem: 0 128<256 896> 256 128<256 768> 512 128<128 256> 640 128<256 768>
VStem: 128 128<128 256 512 640> 768 128<384 640>
LayerCount: 2
Fore
SplineSet
256 640 m 1xec
 256 768 l 1
 768 768 l 1
 768 640 l 1xdc
 256 640 l 1xec
128 512 m 1xec
 128 640 l 1
 256 640 l 1
 256 512 l 1
 128 512 l 1xec
768 384 m 1
 768 640 l 1
 896 640 l 1xdc
 896 384 l 1
 768 384 l 1
256 256 m 1
 256 384 l 1
 768 384 l 1
 768 256 l 1
 256 256 l 1
128 0 m 1
 128 256 l 1
 256 256 l 1
 256 128 l 1
 896 128 l 1
 896 0 l 1
 128 0 l 1
EndSplineSet
EndChar

StartChar: comma
Encoding: 44 44 67
Width: 1024
VWidth: 0
Flags: W
HStem: -128 128<384 512> 0 21G<512 640> 0 21G<512 640>
VStem: 384 128<-128 0> 512 128<0 256>
LayerCount: 2
Fore
SplineSet
512 0 m 1x90
 512 256 l 1
 640 256 l 1
 640 0 l 1x48
 512 0 l 1x90
384 -128 m 1x90
 384 0 l 1
 512 0 l 1
 512 -128 l 1
 384 -128 l 1x90
EndSplineSet
EndChar

StartChar: N
Encoding: 78 78 68
Width: 1024
VWidth: 0
Flags: W
HStem: 0 21G<128 256 768 896> 0 21G<128 256 768 896> 256 128<512 640> 384 128<384 512> 748 20G<128 256 768 896> 748 20G<128 256 768 896>
VStem: 128 128<0 512 640 768> 384 128<384 512> 512 128<256 384> 768 128<0 128 256 768>
LayerCount: 2
Fore
SplineSet
128 0 m 1x9b40
 128 768 l 1
 256 768 l 1
 256 640 l 1
 384 640 l 1
 384 512 l 1
 256 512 l 1
 256 0 l 1
 128 0 l 1x9b40
768 256 m 1xaac0
 768 768 l 1
 896 768 l 1
 896 0 l 1
 768 0 l 1
 768 128 l 1
 640 128 l 1
 640 256 l 1
 768 256 l 1xaac0
384 384 m 1x1340
 384 512 l 1
 512 512 l 1x1340
 512 384 l 1x2340
 384 384 l 1x1340
512 256 m 1x22c0
 512 384 l 1x2340
 640 384 l 1
 640 256 l 1
 512 256 l 1x22c0
EndSplineSet
EndChar

StartChar: bracketright
Encoding: 93 93 69
Width: 1024
VWidth: 0
Flags: W
HStem: 0 128<256 384> 640 128<256 384>
VStem: 256 256<0 128 640 768> 384 128<128 640>
LayerCount: 2
Fore
SplineSet
256 640 m 1xe0
 256 768 l 1
 512 768 l 1
 512 0 l 1
 256 0 l 1
 256 128 l 1xe0
 384 128 l 1
 384 640 l 1xd0
 256 640 l 1xe0
EndSplineSet
EndChar

StartChar: W
Encoding: 87 87 70
Width: 1024
VWidth: 0
Flags: W
HStem: 0 128<256 384 640 768> 128 128<384 640> 748 20G<128 256 768 896> 748 20G<128 256 768 896>
VStem: 128 128<128 768> 256 128<0 128> 640 128<0 128> 768 128<128 768>
LayerCount: 2
Fore
SplineSet
128 128 m 1x48
 128 768 l 1
 256 768 l 1
 256 128 l 1xa8
 128 128 l 1x48
768 128 m 1x82
 768 768 l 1
 896 768 l 1
 896 128 l 1x61
 768 128 l 1x82
384 128 m 1x86
 384 256 l 1
 640 256 l 1x46
 640 128 l 1
 384 128 l 1x86
256 0 m 1x84
 256 128 l 1x88
 384 128 l 1
 384 0 l 1
 256 0 l 1x84
640 0 m 1x82
 640 128 l 1
 768 128 l 1
 768 0 l 1
 640 0 l 1x82
EndSplineSet
EndChar

StartChar: S
Encoding: 83 83 71
Width: 1024
VWidth: 0
Flags: W
HStem: 0 128<256 768> 128 128<128 256> 384 128<256 768> 512 128<128 256> 640 128<256 768>
VStem: 128 128<128 256 512 640> 256 512<0 128 384 512 640 768> 768 128<128 384>
LayerCount: 2
Fore
SplineSet
256 640 m 1x14
 256 768 l 1
 768 768 l 1
 768 640 l 1x0a
 256 640 l 1x14
128 512 m 1x14
 128 640 l 1
 256 640 l 1x14
 256 512 l 1x24
 128 512 l 1x14
256 384 m 1x22
 256 512 l 1x24
 768 512 l 1
 768 384 l 1
 256 384 l 1x22
768 128 m 1x82
 768 384 l 1xa2
 896 384 l 1
 896 128 l 1x61
 768 128 l 1x82
128 128 m 1x44
 128 256 l 1
 256 256 l 1x44
 256 128 l 1x84
 128 128 l 1x44
256 0 m 1x82
 256 128 l 1x84
 768 128 l 1
 768 0 l 1
 256 0 l 1x82
EndSplineSet
EndChar

StartChar: a
Encoding: 97 97 72
Width: 1024
VWidth: 0
Flags: W
HStem: 0 21G<128 256 768 896> 0 21G<128 256 768 896> 256 128<256 768> 640 128<256 768>
VStem: 128 128<0 256 384 640> 768 128<0 256 384 640>
LayerCount: 2
Fore
SplineSet
256 640 m 1x3c
 256 768 l 1
 768 768 l 1
 768 640 l 1
 256 640 l 1x3c
128 0 m 1xbc
 128 640 l 1
 256 640 l 1
 256 384 l 1
 768 384 l 1
 768 640 l 1
 896 640 l 1
 896 0 l 1
 768 0 l 1
 768 256 l 1
 256 256 l 1
 256 0 l 1
 128 0 l 1xbc
EndSplineSet
EndChar

StartChar: parenleft
Encoding: 40 40 73
Width: 1024
VWidth: 0
Flags: W
HStem: 0 128<640 768> 640 128<640 768>
VStem: 512 128<128 640> 640 128<0 128 640 768>
LayerCount: 2
Fore
SplineSet
640 640 m 1xe0
 640 768 l 1
 768 768 l 1
 768 640 l 1xd0
 640 640 l 1xe0
512 128 m 1xe0
 512 640 l 1
 640 640 l 1
 640 128 l 1
 512 128 l 1xe0
640 0 m 1xd0
 640 128 l 1xe0
 768 128 l 1
 768 0 l 1
 640 0 l 1xd0
EndSplineSet
EndChar

StartChar: six
Encoding: 54 54 74
Width: 1024
VWidth: 0
Flags: W
HStem: 0 128<256 768> 384 128<256 768> 640 128<256 768>
VStem: 128 128<128 384 512 640> 768 128<128 384>
LayerCount: 2
Fore
SplineSet
256 640 m 1
 256 768 l 1
 768 768 l 1
 768 640 l 1
 256 640 l 1
128 128 m 1
 128 640 l 1
 256 640 l 1
 256 512 l 1
 768 512 l 1
 768 384 l 1
 256 384 l 1
 256 128 l 1
 128 128 l 1
768 128 m 1
 768 384 l 1
 896 384 l 1
 896 128 l 1
 768 128 l 1
256 0 m 1
 256 128 l 1
 768 128 l 1
 768 0 l 1
 256 0 l 1
EndSplineSet
EndChar

StartChar: D
Encoding: 68 68 75
Width: 1024
VWidth: 0
Flags: W
HStem: 0 128<256 640> 128 128<640 768> 512 128<640 768> 640 128<256 640>
VStem: 128 128<128 640> 640 128<128 256 512 640> 768 128<256 512>
LayerCount: 2
Fore
SplineSet
128 0 m 1x9c
 128 768 l 1
 640 768 l 1x9c
 640 640 l 1x2c
 256 640 l 1
 256 128 l 1
 640 128 l 1
 640 0 l 1
 128 0 l 1x9c
640 512 m 1x2c
 640 640 l 1
 768 640 l 1
 768 512 l 1
 640 512 l 1x2c
768 256 m 1x6c
 768 512 l 1x6c
 896 512 l 1
 896 256 l 1x6a
 768 256 l 1x6c
640 128 m 1x8c
 640 256 l 1
 768 256 l 1
 768 128 l 1x4c
 640 128 l 1x8c
EndSplineSet
EndChar

StartChar: E
Encoding: 69 69 76
Width: 1024
VWidth: 0
Flags: W
HStem: 0 128<256 896> 384 128<256 768> 640 128<256 896>
VStem: 128 128<128 384 512 640>
LayerCount: 2
Fore
SplineSet
128 0 m 1
 128 768 l 1
 896 768 l 1
 896 640 l 1
 256 640 l 1
 256 512 l 1
 768 512 l 1
 768 384 l 1
 256 384 l 1
 256 128 l 1
 896 128 l 1
 896 0 l 1
 128 0 l 1
EndSplineSet
EndChar

StartChar: seven
Encoding: 55 55 77
Width: 1024
VWidth: 0
Flags: W
HStem: 0 21G<384 512> 0 21G<384 512> 256 128<512 640> 384 128<640 768> 640 128<128 768>
VStem: 384 128<0 256> 512 128<256 384> 640 128<384 512> 768 128<512 640>
LayerCount: 2
Fore
SplineSet
128 640 m 1x1880
 128 768 l 1
 896 768 l 1
 896 512 l 1x1880
 768 512 l 1x19
 768 640 l 1
 128 640 l 1x1880
640 384 m 1x2a
 640 512 l 1
 768 512 l 1
 768 384 l 1x19
 640 384 l 1x2a
512 256 m 1x2c
 512 384 l 1
 640 384 l 1
 640 256 l 1x2a
 512 256 l 1x2c
384 0 m 1xac
 384 256 l 1
 512 256 l 1
 512 0 l 1
 384 0 l 1xac
EndSplineSet
EndChar

StartChar: parenright
Encoding: 41 41 78
Width: 1024
VWidth: 0
Flags: W
HStem: 0 128<256 384> 640 128<256 384>
VStem: 256 128<0 128 640 768> 384 128<128 640>
LayerCount: 2
Fore
SplineSet
256 640 m 1xe0
 256 768 l 1
 384 768 l 1
 384 640 l 1
 256 640 l 1xe0
384 128 m 1
 384 640 l 1xe0
 512 640 l 1
 512 128 l 1xd0
 384 128 l 1
256 0 m 1
 256 128 l 1
 384 128 l 1
 384 0 l 1
 256 0 l 1
EndSplineSet
EndChar

StartChar: R
Encoding: 82 82 79
Width: 1024
VWidth: 0
Flags: W
HStem: 0 128<768 896> 256 128<256 640> 640 128<256 768>
VStem: 128 128<0 256 384 640> 640 128<128 256> 768 128<0 128 384 640>
LayerCount: 2
Fore
SplineSet
128 0 m 1xf8
 128 768 l 1
 768 768 l 1
 768 640 l 1
 256 640 l 1
 256 384 l 1
 768 384 l 1xf4
 768 128 l 1
 640 128 l 1
 640 256 l 1
 256 256 l 1
 256 0 l 1
 128 0 l 1xf8
768 384 m 1
 768 640 l 1
 896 640 l 1
 896 384 l 1
 768 384 l 1
768 0 m 1
 768 128 l 1xf8
 896 128 l 1
 896 0 l 1
 768 0 l 1
EndSplineSet
EndChar

StartChar: asciicircum
Encoding: 94 94 80
Width: 1024
VWidth: 0
Flags: W
HStem: 512 128<384 512 640 768> 640 128<512 640>
VStem: 384 128<512 640> 512 128<640 768> 640 128<512 640>
LayerCount: 2
Fore
SplineSet
512 640 m 1xa0
 512 768 l 1
 640 768 l 1x50
 640 640 l 1x90
 512 640 l 1xa0
384 512 m 1xa0
 384 640 l 1
 512 640 l 1
 512 512 l 1
 384 512 l 1xa0
640 512 m 1x88
 640 640 l 1x90
 768 640 l 1
 768 512 l 1
 640 512 l 1x88
EndSplineSet
EndChar

StartChar: P
Encoding: 80 80 81
Width: 1024
VWidth: 0
Flags: W
HStem: 0 21G<128 256> 0 21G<128 256> 256 128<256 768> 640 128<256 768>
VStem: 128 128<0 256 384 640> 768 128<384 640>
LayerCount: 2
Fore
SplineSet
128 0 m 1xbc
 128 768 l 1
 768 768 l 1
 768 640 l 1
 256 640 l 1
 256 384 l 1
 768 384 l 1
 768 256 l 1
 256 256 l 1
 256 0 l 1
 128 0 l 1xbc
768 384 m 1
 768 640 l 1
 896 640 l 1
 896 384 l 1
 768 384 l 1
EndSplineSet
EndChar

StartChar: nine
Encoding: 57 57 82
Width: 1024
VWidth: 0
Flags: W
HStem: 0 128<256 768> 256 128<256 768> 640 128<256 768>
VStem: 128 128<384 640> 768 128<128 256 384 640>
LayerCount: 2
Fore
SplineSet
256 640 m 1
 256 768 l 1
 768 768 l 1
 768 640 l 1
 256 640 l 1
128 384 m 1
 128 640 l 1
 256 640 l 1
 256 384 l 1
 128 384 l 1
768 384 m 1
 768 640 l 1
 896 640 l 1
 896 128 l 1
 768 128 l 1
 768 256 l 1
 256 256 l 1
 256 384 l 1
 768 384 l 1
256 0 m 1
 256 128 l 1
 768 128 l 1
 768 0 l 1
 256 0 l 1
EndSplineSet
EndChar

StartChar: plus
Encoding: 43 43 83
Width: 1024
VWidth: 0
Flags: W
HStem: 0 21G<512 640> 0 21G<512 640> 256 128<256 512 640 896>
VStem: 512 128<0 256 384 640>
LayerCount: 2
Fore
SplineSet
512 384 m 1xb0
 512 640 l 1
 640 640 l 1
 640 384 l 1
 896 384 l 1
 896 256 l 1
 640 256 l 1
 640 0 l 1
 512 0 l 1
 512 256 l 1
 256 256 l 1
 256 384 l 1
 512 384 l 1xb0
EndSplineSet
EndChar

StartChar: asterisk
Encoding: 42 42 84
Width: 1024
VWidth: 0
Flags: W
HStem: 0 128<384 512 640 768> 256 128<256 512 640 896> 512 128<384 512 640 768>
VStem: 384 128<0 128 512 640> 512 128<128 256 384 512> 640 128<0 128 512 640>
CounterMasks: 1 e0
LayerCount: 2
Fore
SplineSet
384 512 m 1xf0
 384 640 l 1
 512 640 l 1
 512 512 l 1
 384 512 l 1xf0
640 512 m 1xe8
 640 640 l 1
 768 640 l 1
 768 512 l 1xe4
 640 512 l 1xe8
512 384 m 1xe8
 512 512 l 1xf0
 640 512 l 1
 640 384 l 1
 896 384 l 1
 896 256 l 1
 640 256 l 1
 640 128 l 1xe8
 512 128 l 1xf0
 512 256 l 1
 256 256 l 1
 256 384 l 1
 512 384 l 1xe8
384 0 m 1
 384 128 l 1
 512 128 l 1
 512 0 l 1
 384 0 l 1
640 0 m 1xe4
 640 128 l 1xe8
 768 128 l 1
 768 0 l 1
 640 0 l 1xe4
EndSplineSet
EndChar

StartChar: eight
Encoding: 56 56 85
Width: 1024
VWidth: 0
Flags: W
HStem: 0 128<256 768> 128 256<128 256 768 896> 384 128<256 768> 512 128<128 256 768 896> 640 128<256 768>
VStem: 128 128<128 384 512 640> 256 512<0 128 384 512 640 768> 768 128<128 384 512 640>
LayerCount: 2
Fore
SplineSet
256 640 m 1x14
 256 768 l 1
 768 768 l 1x0a
 768 640 l 1x12
 256 640 l 1x14
128 512 m 1x14
 128 640 l 1
 256 640 l 1x14
 256 512 l 1x24
 128 512 l 1x14
768 512 m 1x22
 768 640 l 1x12
 896 640 l 1
 896 512 l 1x11
 768 512 l 1x22
256 384 m 1x44
 256 512 l 1x24
 768 512 l 1x22
 768 384 l 1x42
 256 384 l 1x44
128 128 m 1x44
 128 384 l 1
 256 384 l 1x44
 256 128 l 1x84
 128 128 l 1x44
768 128 m 1x82
 768 384 l 1x42
 896 384 l 1
 896 128 l 1x41
 768 128 l 1x82
256 0 m 1x82
 256 128 l 1x84
 768 128 l 1
 768 0 l 1
 256 0 l 1x82
EndSplineSet
EndChar

StartChar: Q
Encoding: 81 81 86
Width: 1024
VWidth: 0
Flags: W
HStem: 0 128<256 512 640 768> 256 128<384 512> 640 128<256 768>
VStem: 128 128<128 640> 384 128<256 384> 768 128<128 640>
LayerCount: 2
Fore
SplineSet
256 640 m 1
 256 768 l 1
 768 768 l 1
 768 640 l 1
 256 640 l 1
128 128 m 1
 128 640 l 1
 256 640 l 1
 256 128 l 1
 128 128 l 1
768 128 m 1
 768 640 l 1
 896 640 l 1
 896 128 l 1
 768 128 l 1
384 256 m 1
 384 384 l 1
 512 384 l 1
 512 256 l 1
 384 256 l 1
512 128 m 1
 512 256 l 1
 640 256 l 1
 640 128 l 1
 768 128 l 1
 768 0 l 1
 256 0 l 1
 256 128 l 1
 512 128 l 1
EndSplineSet
EndChar

StartChar: underscore
Encoding: 95 95 87
Width: 1024
VWidth: 0
Flags: W
HStem: 0 128<128 896>
LayerCount: 2
Fore
SplineSet
128 0 m 1
 128 128 l 1
 896 128 l 1
 896 0 l 1
 128 0 l 1
EndSplineSet
EndChar

StartChar: bar
Encoding: 124 124 88
Width: 1024
VWidth: 0
Flags: W
HStem: 0 21G<384 512> 0 21G<384 512> 748 20G<384 512> 748 20G<384 512>
VStem: 384 128<0 768>
LayerCount: 2
Fore
SplineSet
384 0 m 1xa8
 384 768 l 1
 512 768 l 1
 512 0 l 1
 384 0 l 1xa8
EndSplineSet
EndChar

StartChar: v
Encoding: 118 118 89
Width: 1024
VWidth: 0
Flags: W
HStem: 0 128<384 640> 128 128<256 384 640 768> 748 20G<128 256 768 896> 748 20G<128 256 768 896>
VStem: 128 128<256 768> 256 128<128 256> 640 128<128 256> 768 128<256 768>
LayerCount: 2
Fore
SplineSet
128 256 m 1x68
 128 768 l 1
 256 768 l 1
 256 256 l 1
 128 256 l 1x68
768 256 m 1x62
 768 768 l 1
 896 768 l 1
 896 256 l 1x61
 768 256 l 1x62
256 128 m 1x44
 256 256 l 1x48
 384 256 l 1x44
 384 128 l 1x84
 256 128 l 1x44
640 128 m 1x82
 640 256 l 1
 768 256 l 1
 768 128 l 1x42
 640 128 l 1x82
384 0 m 1x86
 384 128 l 1
 640 128 l 1
 640 0 l 1
 384 0 l 1x86
EndSplineSet
EndChar

StartChar: glyph90
Encoding: 266 9629 90
Width: 1024
VWidth: 0
Flags: W
HStem: 384 512<512 1024>
VStem: 512 512<384 896>
LayerCount: 2
Fore
SplineSet
512 384 m 1
 512 896 l 1
 1024 896 l 1
 1024 384 l 1
 512 384 l 1
EndSplineSet
EndChar

StartChar: glyph91
Encoding: 267 9600 91
Width: 1024
VWidth: 0
Flags: W
HStem: 384 512<0 1024>
LayerCount: 2
Fore
SplineSet
0 384 m 1
 0 896 l 1
 1024 896 l 1
 1024 384 l 1
 0 384 l 1
EndSplineSet
EndChar

StartChar: glyph92
Encoding: 268 9628 92
Width: 1024
VWidth: 0
Flags: W
HStem: 384 512<0 512>
VStem: 512 512<-128 384>
LayerCount: 2
Fore
SplineSet
0 384 m 1
 0 896 l 1
 1024 896 l 1
 1024 -128 l 1
 512 -128 l 1
 512 384 l 1
 0 384 l 1
EndSplineSet
EndChar

StartChar: w
Encoding: 119 119 93
Width: 1024
VWidth: 0
Flags: W
HStem: 0 128<256 384 640 768> 128 128<384 640> 748 20G<128 256 768 896> 748 20G<128 256 768 896>
VStem: 128 128<128 768> 256 128<0 128> 640 128<0 128> 768 128<128 768>
LayerCount: 2
Fore
SplineSet
128 128 m 1x48
 128 768 l 1
 256 768 l 1
 256 128 l 1xa8
 128 128 l 1x48
768 128 m 1x82
 768 768 l 1
 896 768 l 1
 896 128 l 1x61
 768 128 l 1x82
384 128 m 1x86
 384 256 l 1
 640 256 l 1x46
 640 128 l 1
 384 128 l 1x86
256 0 m 1x84
 256 128 l 1x88
 384 128 l 1
 384 0 l 1
 256 0 l 1x84
640 0 m 1x82
 640 128 l 1
 768 128 l 1
 768 0 l 1
 640 0 l 1x82
EndSplineSet
EndChar

StartChar: braceright
Encoding: 125 125 94
Width: 1024
VWidth: 0
Flags: W
HStem: 0 128<256 384> 640 128<256 384>
VStem: 256 256<0 128 640 768> 384 128<128 256 512 640> 512 128<256 512>
LayerCount: 2
Fore
SplineSet
256 640 m 1xe0
 256 768 l 1
 512 768 l 1xe0
 512 512 l 1
 384 512 l 1
 384 640 l 1xd0
 256 640 l 1xe0
512 256 m 1xd0
 512 512 l 1xd0
 640 512 l 1
 640 256 l 1xc8
 512 256 l 1xd0
384 128 m 1
 384 256 l 1
 512 256 l 1xd0
 512 0 l 1
 256 0 l 1
 256 128 l 1xe0
 384 128 l 1
EndSplineSet
EndChar

StartChar: glyph96
Encoding: 269 9616 96
Width: 1024
VWidth: 0
Flags: W
VStem: 512 512<-128 896>
LayerCount: 2
Fore
SplineSet
512 -128 m 1
 512 896 l 1
 1024 896 l 1
 1024 -128 l 1
 512 -128 l 1
EndSplineSet
EndChar

StartChar: glyph97
Encoding: 270 9617 97
Width: 1024
VWidth: 0
Flags: W
HStem: -128 128<0 128 256 384 512 640 768 896> 0 128<128 256 384 512 640 768 896 1024> 128 128<0 128 256 384 512 640 768 896> 256 128<128 256 384 512 640 768 896 1024> 384 128<0 128 256 384 512 640 768 896> 512 128<128 256 384 512 640 768 896 1024> 640 128<0 128 256 384 512 640 768 896> 768 128<128 256 384 512 640 768 896 1024>
VStem: 0 128<-128 0 128 256 384 512 640 768> 128 128<0 128 256 384 512 640 768 896> 256 128<-128 0 128 256 384 512 640 768> 384 128<0 128 256 384 512 640 768 896> 512 128<-128 0 128 256 384 512 640 768> 640 128<0 128 256 384 512 640 768 896> 768 128<-128 0 128 256 384 512 640 768> 896 128<0 128 256 384 512 640 768 896>
LayerCount: 2
Fore
SplineSet
128 768 m 1x0280
 128 896 l 1
 256 896 l 1x0140
 256 768 l 1x0240
 128 768 l 1x0280
384 768 m 1x0220
 384 896 l 1
 512 896 l 1x0110
 512 768 l 1x0210
 384 768 l 1x0220
640 768 m 1x0208
 640 896 l 1
 768 896 l 1x0104
 768 768 l 1x0204
 640 768 l 1x0208
896 768 m 1x0202
 896 896 l 1
 1024 896 l 1
 1024 768 l 1x0101
 896 768 l 1x0202
0 640 m 1x0280
 0 768 l 1
 128 768 l 1x0280
 128 640 l 1x0480
 0 640 l 1x0280
256 640 m 1x0440
 256 768 l 1x0240
 384 768 l 1x0220
 384 640 l 1x0420
 256 640 l 1x0440
512 640 m 1x0410
 512 768 l 1x0210
 640 768 l 1x0208
 640 640 l 1x0408
 512 640 l 1x0410
768 640 m 1x0404
 768 768 l 1x0204
 896 768 l 1x0202
 896 640 l 1x0402
 768 640 l 1x0404
128 512 m 1x0880
 128 640 l 1x0480
 256 640 l 1x0440
 256 512 l 1x0840
 128 512 l 1x0880
384 512 m 1x0820
 384 640 l 1x0420
 512 640 l 1x0410
 512 512 l 1x0810
 384 512 l 1x0820
640 512 m 1x0808
 640 640 l 1x0408
 768 640 l 1x0404
 768 512 l 1x0804
 640 512 l 1x0808
896 512 m 1x0802
 896 640 l 1x0402
 1024 640 l 1
 1024 512 l 1x0401
 896 512 l 1x0802
0 384 m 1x0880
 0 512 l 1
 128 512 l 1x0880
 128 384 l 1x1080
 0 384 l 1x0880
256 384 m 1x1040
 256 512 l 1x0840
 384 512 l 1x0820
 384 384 l 1x1020
 256 384 l 1x1040
512 384 m 1x1010
 512 512 l 1x0810
 640 512 l 1x0808
 640 384 l 1x1008
 512 384 l 1x1010
768 384 m 1x1004
 768 512 l 1x0804
 896 512 l 1x0802
 896 384 l 1x1002
 768 384 l 1x1004
128 256 m 1x2080
 128 384 l 1x1080
 256 384 l 1x1040
 256 256 l 1x2040
 128 256 l 1x2080
384 256 m 1x2020
 384 384 l 1x1020
 512 384 l 1x1010
 512 256 l 1x2010
 384 256 l 1x2020
640 256 m 1x2008
 640 384 l 1x1008
 768 384 l 1x1004
 768 256 l 1x2004
 640 256 l 1x2008
896 256 m 1x2002
 896 384 l 1x1002
 1024 384 l 1
 1024 256 l 1x1001
 896 256 l 1x2002
0 128 m 1x2080
 0 256 l 1
 128 256 l 1x2080
 128 128 l 1x4080
 0 128 l 1x2080
256 128 m 1x4040
 256 256 l 1x2040
 384 256 l 1x2020
 384 128 l 1x4020
 256 128 l 1x4040
512 128 m 1x4010
 512 256 l 1x2010
 640 256 l 1x2008
 640 128 l 1x4008
 512 128 l 1x4010
768 128 m 1x4004
 768 256 l 1x2004
 896 256 l 1x2002
 896 128 l 1x4002
 768 128 l 1x4004
128 0 m 1x8080
 128 128 l 1x4080
 256 128 l 1x4040
 256 0 l 1x8040
 128 0 l 1x8080
384 0 m 1x8020
 384 128 l 1x4020
 512 128 l 1x4010
 512 0 l 1x8010
 384 0 l 1x8020
640 0 m 1x8008
 640 128 l 1x4008
 768 128 l 1x4004
 768 0 l 1x8004
 640 0 l 1x8008
896 0 m 1x8002
 896 128 l 1x4002
 1024 128 l 1
 1024 0 l 1x4001
 896 0 l 1x8002
0 -128 m 1x8080
 0 0 l 1
 128 0 l 1
 128 -128 l 1
 0 -128 l 1x8080
256 -128 m 1x8020
 256 0 l 1x8040
 384 0 l 1
 384 -128 l 1
 256 -128 l 1x8020
512 -128 m 1x8008
 512 0 l 1x8010
 640 0 l 1
 640 -128 l 1
 512 -128 l 1x8008
768 -128 m 1x8002
 768 0 l 1x8004
 896 0 l 1
 896 -128 l 1
 768 -128 l 1x8002
EndSplineSet
EndChar

StartChar: exclam
Encoding: 33 33 98
Width: 1024
VWidth: 0
Flags: W
HStem: 0 128<384 512> 748 20G<384 512> 748 20G<384 512>
VStem: 384 128<0 128 256 768>
LayerCount: 2
Fore
SplineSet
384 256 m 1xd0
 384 768 l 1
 512 768 l 1
 512 256 l 1
 384 256 l 1xd0
384 0 m 1
 384 128 l 1
 512 128 l 1
 512 0 l 1
 384 0 l 1
EndSplineSet
EndChar

StartChar: asciitilde
Encoding: 126 126 99
Width: 1024
VWidth: 0
Flags: W
HStem: 512 128<256 384 512 640> 640 128<384 512 640 768>
VStem: 256 128<512 640> 384 128<640 768> 512 128<512 640> 640 128<640 768>
LayerCount: 2
Fore
SplineSet
384 640 m 1xa0
 384 768 l 1
 512 768 l 1x50
 512 640 l 1x90
 384 640 l 1xa0
640 640 m 1x88
 640 768 l 1
 768 768 l 1
 768 640 l 1x44
 640 640 l 1x88
256 512 m 1xa0
 256 640 l 1
 384 640 l 1
 384 512 l 1
 256 512 l 1xa0
512 512 m 1x88
 512 640 l 1x90
 640 640 l 1
 640 512 l 1
 512 512 l 1x88
EndSplineSet
EndChar

StartChar: z
Encoding: 122 122 100
Width: 1024
VWidth: 0
Flags: W
HStem: 0 128<128 256 384 896> 256 128<384 512> 384 128<512 640> 640 128<128 640 768 896>
VStem: 384 128<256 384> 512 128<384 512>
LayerCount: 2
Fore
SplineSet
128 640 m 1xb4
 128 768 l 1
 896 768 l 1
 896 640 l 1
 768 640 l 1
 768 512 l 1
 640 512 l 1
 640 640 l 1
 128 640 l 1xb4
512 384 m 1xd8
 512 512 l 1
 640 512 l 1
 640 384 l 1xb4
 512 384 l 1xd8
384 256 m 1xd8
 384 384 l 1
 512 384 l 1
 512 256 l 1
 384 256 l 1xd8
256 128 m 1
 256 256 l 1
 384 256 l 1
 384 128 l 1
 896 128 l 1
 896 0 l 1
 128 0 l 1
 128 128 l 1
 256 128 l 1
EndSplineSet
EndChar

StartChar: percent
Encoding: 37 37 101
Width: 1024
VWidth: 0
Flags: W
HStem: 0 128<128 256> 128 128<256 384> 256 128<384 512> 384 128<512 640> 512 128<640 768> 640 128<768 896>
VStem: 128 128<0 128> 256 128<128 256> 384 128<256 384> 512 128<384 512> 640 128<512 640> 768 128<640 768>
LayerCount: 2
Fore
SplineSet
128 512 m 1x0a80
 128 768 l 1
 384 768 l 1x0680
 384 512 l 1
 128 512 l 1x0a80
768 640 m 1x0820
 768 768 l 1
 896 768 l 1
 896 640 l 1x0410
 768 640 l 1x0820
640 512 m 1x1040
 640 640 l 1
 768 640 l 1
 768 512 l 1x0820
 640 512 l 1x1040
512 384 m 1x2080
 512 512 l 1
 640 512 l 1
 640 384 l 1x1040
 512 384 l 1x2080
384 256 m 1x41
 384 384 l 1
 512 384 l 1
 512 256 l 1x2080
 384 256 l 1x41
256 128 m 1x82
 256 256 l 1
 384 256 l 1
 384 128 l 1x41
 256 128 l 1x82
640 0 m 1xa020
 640 256 l 1xa020
 896 256 l 1
 896 0 l 1xa010
 640 0 l 1xa020
128 0 m 1x82
 128 128 l 1
 256 128 l 1
 256 0 l 1
 128 0 l 1x82
EndSplineSet
EndChar

StartChar: glyph102
Encoding: 271 9612 102
Width: 1024
VWidth: 0
Flags: W
VStem: 0 512<-128 896>
LayerCount: 2
Fore
SplineSet
0 -128 m 1
 0 896 l 1
 512 896 l 1
 512 -128 l 1
 0 -128 l 1
EndSplineSet
EndChar

StartChar: dollar
Encoding: 36 36 103
Width: 1024
VWidth: 0
Flags: W
HStem: 0 128<256 512 640 768> 256 128<384 512 640 768> 512 128<384 512 640 896> 748 20G<512 640> 748 20G<512 640>
VStem: 256 128<384 512> 512 128<-128 0 128 256 384 512 640 768> 768 128<128 256>
CounterMasks: 1 07
LayerCount: 2
Fore
SplineSet
512 640 m 1xf7
 512 768 l 1
 640 768 l 1
 640 640 l 1
 896 640 l 1
 896 512 l 1
 640 512 l 1
 640 384 l 1
 896 384 l 1
 896 0 l 1
 640 0 l 1
 640 -128 l 1
 512 -128 l 1
 512 0 l 1
 256 0 l 1
 256 128 l 1
 512 128 l 1
 512 256 l 1
 256 256 l 1
 256 640 l 1
 512 640 l 1xf7
512 384 m 1
 512 512 l 1
 384 512 l 1
 384 384 l 1
 512 384 l 1
768 128 m 1
 768 256 l 1
 640 256 l 1
 640 128 l 1
 768 128 l 1
EndSplineSet
EndChar

StartChar: braceleft
Encoding: 123 123 104
Width: 1024
VWidth: 0
Flags: W
HStem: 0 128<640 768> 640 128<640 768>
VStem: 384 128<256 512> 512 256<0 128 640 768> 512 128<128 256 512 640>
LayerCount: 2
Fore
SplineSet
512 512 m 1xe0
 512 768 l 1
 768 768 l 1
 768 640 l 1xd0
 640 640 l 1
 640 512 l 1xc8
 512 512 l 1xe0
384 256 m 1xe0
 384 512 l 1
 512 512 l 1
 512 256 l 1
 384 256 l 1xe0
512 0 m 1xd0
 512 256 l 1xe0
 640 256 l 1
 640 128 l 1xc8
 768 128 l 1
 768 0 l 1
 512 0 l 1xd0
EndSplineSet
EndChar

StartChar: m
Encoding: 109 109 105
Width: 1024
VWidth: 0
Flags: W
HStem: 0 21G<128 256 768 896> 0 21G<128 256 768 896> 384 128<384 640> 512 128<256 384 640 768> 748 20G<128 256 768 896> 748 20G<128 256 768 896>
VStem: 128 128<0 512 640 768> 768 128<0 512 640 768>
LayerCount: 2
Fore
SplineSet
128 0 m 1x93
 128 768 l 1
 256 768 l 1
 256 640 l 1
 384 640 l 1x9b
 384 512 l 1x23
 256 512 l 1
 256 0 l 1
 128 0 l 1x93
768 640 m 1
 768 768 l 1
 896 768 l 1
 896 0 l 1
 768 0 l 1
 768 512 l 1x9b
 640 512 l 1x23
 640 640 l 1
 768 640 l 1
384 384 m 1x23
 384 512 l 1
 640 512 l 1
 640 384 l 1
 384 384 l 1x23
EndSplineSet
EndChar

StartChar: y
Encoding: 121 121 106
Width: 1024
VWidth: 0
Flags: W
HStem: 0 21G<384 512> 0 21G<384 512> 384 128<256 384 512 640> 512 128<128 256 640 768> 640 128<0 128 768 896>
VStem: 0 128<640 768> 128 128<512 640> 256 128<384 512> 384 128<0 384> 512 128<384 512> 640 128<512 640> 768 128<640 768>
LayerCount: 2
Fore
SplineSet
0 640 m 1x0c
 0 768 l 1
 128 768 l 1x0c
 128 640 l 1x14
 0 640 l 1x0c
768 640 m 1x1020
 768 768 l 1
 896 768 l 1
 896 640 l 1x0810
 768 640 l 1x1020
128 512 m 1x12
 128 640 l 1x14
 256 640 l 1x12
 256 512 l 1x22
 128 512 l 1x12
640 512 m 1x2040
 640 640 l 1
 768 640 l 1
 768 512 l 1x1020
 640 512 l 1x2040
256 384 m 1x21
 256 512 l 1x22
 384 512 l 1
 384 384 l 1
 256 384 l 1x21
512 384 m 1x2080
 512 512 l 1
 640 512 l 1
 640 384 l 1x2040
 512 384 l 1x2080
384 0 m 1xa080
 384 384 l 1xa1
 512 384 l 1
 512 0 l 1
 384 0 l 1xa080
EndSplineSet
EndChar

StartChar: quotedbl
Encoding: 34 34 107
Width: 1024
VWidth: 0
Flags: W
HStem: 512 256<256 384 640 768>
VStem: 256 128<512 768> 640 128<512 768>
LayerCount: 2
Fore
SplineSet
256 512 m 1
 256 768 l 1
 384 768 l 1
 384 512 l 1
 256 512 l 1
640 512 m 1
 640 768 l 1
 768 768 l 1
 768 512 l 1
 640 512 l 1
EndSplineSet
EndChar

StartChar: glyph108
Encoding: 272 9604 108
Width: 1024
VWidth: 0
Flags: W
HStem: -128 512<0 1024>
LayerCount: 2
Fore
SplineSet
0 -128 m 1
 0 384 l 1
 1024 384 l 1
 1024 -128 l 1
 0 -128 l 1
EndSplineSet
EndChar

StartChar: numbersign
Encoding: 35 35 109
Width: 1024
VWidth: 0
Flags: W
HStem: 0 21G<384 512 640 768> 0 21G<384 512 640 768> 128 128<256 384 512 640 768 896> 384 128<256 384 512 640 768 896>
VStem: 384 128<0 128 256 384 512 640> 640 128<0 128 256 384 512 640>
LayerCount: 2
Fore
SplineSet
384 512 m 1xbc
 384 640 l 1
 512 640 l 1
 512 512 l 1
 640 512 l 1
 640 640 l 1
 768 640 l 1
 768 512 l 1
 896 512 l 1
 896 384 l 1
 768 384 l 1
 768 256 l 1
 896 256 l 1
 896 128 l 1
 768 128 l 1
 768 0 l 1
 640 0 l 1
 640 128 l 1
 512 128 l 1
 512 0 l 1
 384 0 l 1
 384 128 l 1
 256 128 l 1
 256 256 l 1
 384 256 l 1
 384 384 l 1
 256 384 l 1
 256 512 l 1
 384 512 l 1xbc
640 256 m 1
 640 384 l 1
 512 384 l 1
 512 256 l 1
 640 256 l 1
EndSplineSet
EndChar

StartChar: x
Encoding: 120 120 110
Width: 1024
VWidth: 0
Flags: W
HStem: 0 128<128 256 768 896> 128 128<256 384 640 768> 256 256<384 640> 512 128<256 384 640 768> 640 128<128 256 768 896>
VStem: 128 128<0 128 640 768> 256 128<128 256 512 640> 384 256<256 512> 640 128<128 256 512 640> 768 128<0 128 640 768>
LayerCount: 2
Fore
SplineSet
128 640 m 1x0c
 128 768 l 1
 256 768 l 1x0c
 256 640 l 1x14
 128 640 l 1x0c
768 640 m 1x1080
 768 768 l 1
 896 768 l 1
 896 640 l 1x0840
 768 640 l 1x1080
256 512 m 1x12
 256 640 l 1x14
 384 640 l 1x12
 384 512 l 1x22
 256 512 l 1x12
640 512 m 1x21
 640 640 l 1
 768 640 l 1
 768 512 l 1x1080
 640 512 l 1x21
384 256 m 1x42
 384 512 l 1x22
 640 512 l 1x21
 640 256 l 1x41
 384 256 l 1x42
256 128 m 1x84
 256 256 l 1
 384 256 l 1
 384 128 l 1x42
 256 128 l 1x84
640 128 m 1x4080
 640 256 l 1x41
 768 256 l 1x4080
 768 128 l 1x8080
 640 128 l 1x4080
128 0 m 1x84
 128 128 l 1
 256 128 l 1
 256 0 l 1
 128 0 l 1x84
768 0 m 1x8040
 768 128 l 1x8080
 896 128 l 1
 896 0 l 1
 768 0 l 1x8040
EndSplineSet
EndChar

StartChar: l
Encoding: 108 108 111
Width: 1024
VWidth: 0
Flags: W
HStem: 0 128<256 896> 748 20G<128 256> 748 20G<128 256>
VStem: 128 128<128 768>
LayerCount: 2
Fore
SplineSet
128 0 m 1xd0
 128 768 l 1
 256 768 l 1
 256 128 l 1
 896 128 l 1
 896 0 l 1
 128 0 l 1xd0
EndSplineSet
EndChar
